<svg width="54" height="55" viewBox="0 0 54 55" fill="none" xmlns="http://www.w3.org/2000/svg">
<circle cx="26" cy="26.5" r="23" fill="#C9CFE1"/>
<g filter="url(#filter0_d_50_198)">
<circle cx="26" cy="26.5" r="18" fill="#F9FFFB"/>
</g>
<path d="M25.3227 31.668C24.7627 31.668 24.2354 31.5653 23.7407 31.36C23.2554 31.1547 22.8354 30.8653 22.4807 30.492C22.1354 30.1187 21.888 29.68 21.7387 29.176L23.1387 28.644C23.3254 29.1387 23.61 29.5213 23.9927 29.792C24.3754 30.0627 24.8187 30.198 25.3227 30.198C25.7334 30.198 26.088 30.1187 26.3867 29.96C26.6947 29.8013 26.9327 29.5773 27.1007 29.288C27.278 28.9987 27.3667 28.6487 27.3667 28.238C27.3667 27.8367 27.278 27.4913 27.1007 27.202C26.9327 26.9127 26.6947 26.6933 26.3867 26.544C26.088 26.3947 25.7334 26.32 25.3227 26.32C25.1547 26.32 24.982 26.334 24.8047 26.362C24.6367 26.39 24.4874 26.4273 24.3567 26.474L23.9927 25.704L26.7367 22.47H22.2987V21.07H28.5847V22.4L25.8967 25.62L25.8547 25.088C26.48 25.0973 27.0307 25.2373 27.5067 25.508C27.9827 25.7693 28.3514 26.1333 28.6127 26.6C28.8834 27.0573 29.0187 27.5893 29.0187 28.196C29.0187 28.8493 28.86 29.442 28.5427 29.974C28.2254 30.4967 27.7867 30.912 27.2267 31.22C26.676 31.5187 26.0414 31.668 25.3227 31.668Z" fill="#0E1C4D"/>
<defs>
<filter id="filter0_d_50_198" x="0" y="0.5" width="54" height="54" filterUnits="userSpaceOnUse" color-interpolation-filters="sRGB">
<feFlood flood-opacity="0" result="BackgroundImageFix"/>
<feColorMatrix in="SourceAlpha" type="matrix" values="0 0 0 0 0 0 0 0 0 0 0 0 0 0 0 0 0 0 127 0" result="hardAlpha"/>
<feMorphology radius="1" operator="dilate" in="SourceAlpha" result="effect1_dropShadow_50_198"/>
<feOffset dx="1" dy="1"/>
<feGaussianBlur stdDeviation="4"/>
<feComposite in2="hardAlpha" operator="out"/>
<feColorMatrix type="matrix" values="0 0 0 0 0.0291051 0 0 0 0 0.415543 0 0 0 0 0.223441 0 0 0 0.2 0"/>
<feBlend mode="normal" in2="BackgroundImageFix" result="effect1_dropShadow_50_198"/>
<feBlend mode="normal" in="SourceGraphic" in2="effect1_dropShadow_50_198" result="shape"/>
</filter>
</defs>
</svg>
